<?xml version="1.0" encoding="UTF-8"?>
<svg width="800" height="600" viewBox="0 0 800 600" fill="none" xmlns="http://www.w3.org/2000/svg">
  <rect width="800" height="600" fill="#000000"/>
  <rect x="50" y="50" width="700" height="500" rx="20" fill="#111111" stroke="#FFFFFF" stroke-width="2"/>
  <rect x="100" y="100" width="600" height="100" rx="10" fill="#1A1A1A"/>
  <rect x="120" y="120" width="200" height="20" rx="5" fill="#FFFFFF"/>
  <rect x="120" y="150" width="400" height="20" rx="5" fill="#333333"/>
  <rect x="100" y="220" width="200" height="280" rx="10" fill="#1A1A1A"/>
  <rect x="320" y="220" width="380" height="280" rx="10" fill="#1A1A1A"/>
  <rect x="340" y="240" width="340" height="40" rx="5" fill="#FFFFFF"/>
  <rect x="340" y="290" width="340" height="30" rx="5" fill="#333333"/>
  <rect x="340" y="330" width="340" height="30" rx="5" fill="#333333"/>
  <rect x="340" y="370" width="340" height="30" rx="5" fill="#333333"/>
  <rect x="340" y="410" width="340" height="30" rx="5" fill="#333333"/>
  <rect x="340" y="450" width="340" height="30" rx="5" fill="#333333"/>
  <rect x="120" y="240" width="160" height="40" rx="5" fill="#FFFFFF"/>
  <rect x="120" y="290" width="160" height="40" rx="5" fill="#FFFFFF"/>
  <rect x="120" y="340" width="160" height="40" rx="5" fill="#FFFFFF"/>
  <rect x="120" y="390" width="160" height="40" rx="5" fill="#FFFFFF"/>
  <rect x="120" y="440" width="160" height="40" rx="5" fill="#FFFFFF"/>
  <circle cx="200" cy="520" r="20" fill="#FFFFFF"/>
  <circle cx="240" cy="520" r="20" fill="#333333"/>
  <circle cx="280" cy="520" r="20" fill="#333333"/>
</svg> 